G04 EAGLE Gerber RS-274X export*
G75*
%MOMM*%
%FSLAX34Y34*%
%LPD*%
%INTop Copper*%
%IPPOS*%
%AMOC8*
5,1,8,0,0,1.08239X$1,22.5*%
G01*
%ADD10P,1.539592X8X292.500000*%
%ADD11P,1.539592X8X22.500000*%
%ADD12P,1.539592X8X202.500000*%
%ADD13P,1.539592X8X112.500000*%
%ADD14C,1.422400*%
%ADD15C,1.879600*%
%ADD16C,1.509600*%
%ADD17C,0.609600*%
%ADD18C,0.406400*%
%ADD19C,0.858000*%


D10*
X330200Y419100D03*
X330200Y393700D03*
D11*
X317500Y215900D03*
X342900Y215900D03*
D12*
X190500Y114300D03*
X165100Y114300D03*
D10*
X394970Y482600D03*
X394970Y457200D03*
X127000Y482600D03*
X127000Y457200D03*
D13*
X369570Y356870D03*
X369570Y433070D03*
X132080Y359410D03*
X132080Y435610D03*
D10*
X394970Y433070D03*
X394970Y356870D03*
X106680Y435610D03*
X106680Y359410D03*
D14*
X208788Y419100D02*
X223012Y419100D01*
X223012Y393700D02*
X208788Y393700D01*
X208788Y368300D02*
X223012Y368300D01*
X223012Y342900D02*
X208788Y342900D01*
X208788Y317500D02*
X223012Y317500D01*
X223012Y292100D02*
X208788Y292100D01*
X208788Y266700D02*
X223012Y266700D01*
X223012Y241300D02*
X208788Y241300D01*
X208788Y215900D02*
X223012Y215900D01*
X223012Y190500D02*
X208788Y190500D01*
X208788Y165100D02*
X223012Y165100D01*
X223012Y139700D02*
X208788Y139700D01*
X208788Y114300D02*
X223012Y114300D01*
X223012Y88900D02*
X208788Y88900D01*
X284988Y88900D02*
X299212Y88900D01*
X299212Y114300D02*
X284988Y114300D01*
X284988Y139700D02*
X299212Y139700D01*
X299212Y165100D02*
X284988Y165100D01*
X284988Y190500D02*
X299212Y190500D01*
X299212Y215900D02*
X284988Y215900D01*
X284988Y241300D02*
X299212Y241300D01*
X299212Y266700D02*
X284988Y266700D01*
X284988Y292100D02*
X299212Y292100D01*
X299212Y317500D02*
X284988Y317500D01*
X284988Y342900D02*
X299212Y342900D01*
X299212Y368300D02*
X284988Y368300D01*
X284988Y393700D02*
X299212Y393700D01*
X299212Y419100D02*
X284988Y419100D01*
D15*
X406400Y111760D03*
X406400Y88900D03*
X469900Y368300D03*
X469900Y342900D03*
X469900Y317500D03*
X469900Y292100D03*
X469900Y266700D03*
X469900Y242570D03*
X469900Y217170D03*
X469900Y191770D03*
X469900Y166370D03*
X469900Y140970D03*
X25400Y241300D03*
X25400Y215900D03*
X25400Y190500D03*
X25400Y165100D03*
X25400Y139700D03*
X25400Y368300D03*
X25400Y342900D03*
X25400Y317500D03*
X25400Y292100D03*
X25400Y266700D03*
X25400Y71120D03*
X25400Y49530D03*
X25400Y27940D03*
X151130Y20320D03*
X151130Y45720D03*
D16*
X203600Y50790D03*
X228600Y50790D03*
X253600Y50790D03*
X253600Y17790D03*
X228600Y17790D03*
X203600Y17790D03*
D15*
X119380Y20320D03*
X119380Y45720D03*
X119380Y71120D03*
X119380Y96520D03*
X415290Y20320D03*
X389890Y20320D03*
X364490Y20320D03*
X339090Y20320D03*
X313690Y20320D03*
X288290Y20320D03*
X203200Y478790D03*
X228600Y478790D03*
X254000Y478790D03*
X279400Y478790D03*
X304800Y478790D03*
X441960Y20320D03*
X441960Y45720D03*
X441960Y71120D03*
X441960Y96520D03*
X429260Y471170D03*
X480060Y471170D03*
X76200Y469900D03*
X25400Y469900D03*
D17*
X203600Y50790D02*
X203600Y17790D01*
X185420Y45720D02*
X151130Y45720D01*
X185420Y45720D02*
X190500Y50800D01*
X203590Y50800D01*
X203600Y50790D01*
D18*
X215900Y114300D02*
X190500Y114300D01*
X330200Y419100D02*
X355600Y419100D01*
X394970Y379730D02*
X394970Y356870D01*
X394970Y379730D02*
X355600Y419100D01*
X469900Y73660D02*
X441960Y45720D01*
X469900Y101600D02*
X444500Y127000D01*
X444500Y152400D01*
X458470Y166370D01*
X469900Y166370D01*
X469900Y101600D02*
X469900Y73660D01*
X119380Y20320D02*
X100330Y20320D01*
X71120Y49530D01*
D19*
X71120Y49530D03*
X71120Y128270D03*
D18*
X71120Y182880D01*
X71120Y49530D02*
X25400Y49530D01*
X71120Y128270D02*
X176530Y128270D01*
X190500Y114300D01*
X71120Y182880D02*
X63500Y190500D01*
D19*
X63500Y190500D03*
D18*
X25400Y190500D01*
D19*
X139700Y416560D03*
D18*
X211455Y461645D02*
X228600Y478790D01*
X211455Y461645D02*
X166370Y416560D01*
X139700Y416560D01*
X266700Y419100D02*
X292100Y419100D01*
X224155Y461645D02*
X211455Y461645D01*
X224155Y461645D02*
X266700Y419100D01*
D17*
X253600Y50790D02*
X253600Y17790D01*
X334010Y50800D02*
X364490Y20320D01*
X253610Y50800D02*
X253600Y50790D01*
X253610Y50800D02*
X334010Y50800D01*
D18*
X317500Y215900D02*
X292100Y215900D01*
X429260Y448310D02*
X429260Y471170D01*
X429260Y448310D02*
X414020Y433070D01*
X394970Y433070D01*
X349250Y450850D02*
X342900Y444500D01*
X349250Y450850D02*
X377190Y450850D01*
X394970Y433070D01*
X241300Y419100D02*
X215900Y419100D01*
X241300Y419100D02*
X254000Y406400D01*
X304800Y406400D01*
X317500Y419100D01*
X317500Y431800D01*
X330200Y444500D01*
X342900Y444500D01*
X215900Y139700D02*
X194310Y139700D01*
X184150Y149860D01*
X161290Y149860D01*
D19*
X161290Y149860D03*
X161290Y447040D03*
D18*
X161290Y461010D01*
X139700Y482600D01*
X127000Y482600D01*
X127000Y457200D02*
X132080Y452120D01*
X132080Y435610D01*
X76200Y449580D02*
X76200Y469900D01*
X76200Y449580D02*
X90170Y435610D01*
X106680Y435610D01*
X203200Y165100D02*
X215900Y165100D01*
X203200Y165100D02*
X190500Y177800D01*
X177800Y177800D01*
D19*
X177800Y177800D03*
X177800Y406400D03*
D18*
X135890Y406400D01*
X106680Y435610D01*
X292100Y165100D02*
X355600Y165100D01*
D19*
X355600Y165100D03*
X355600Y111760D03*
D18*
X406400Y111760D01*
X426720Y111760D01*
X441960Y96520D01*
X368300Y139700D02*
X292100Y139700D01*
D19*
X368300Y139700D03*
X368300Y88900D03*
D18*
X406400Y88900D01*
X424180Y71120D01*
X441960Y71120D01*
X241300Y266700D02*
X215900Y266700D01*
X241300Y266700D02*
X254000Y254000D01*
D19*
X254000Y254000D03*
D18*
X266700Y215900D02*
X215900Y215900D01*
D19*
X266700Y215900D03*
D18*
X76200Y368300D02*
X25400Y368300D01*
X76200Y368300D02*
X101600Y393700D01*
X215900Y393700D01*
X215900Y368300D02*
X165100Y368300D01*
X139700Y342900D02*
X25400Y342900D01*
X139700Y342900D02*
X165100Y368300D01*
X127000Y292100D02*
X215900Y292100D01*
X127000Y292100D02*
X101600Y317500D01*
X25400Y317500D01*
X127000Y190500D02*
X215900Y190500D01*
D19*
X127000Y190500D03*
X127000Y275590D03*
D18*
X112395Y290195D01*
X110490Y292100D02*
X25400Y292100D01*
X110490Y292100D02*
X112395Y290195D01*
X154940Y88900D02*
X215900Y88900D01*
X154940Y88900D02*
X146050Y97790D01*
D19*
X146050Y97790D03*
X146050Y241300D03*
D18*
X101600Y241300D01*
X76200Y266700D01*
X25400Y266700D01*
X407670Y341630D02*
X434340Y368300D01*
X469900Y368300D01*
X332740Y368300D02*
X292100Y368300D01*
X332740Y368300D02*
X359410Y341630D01*
X407670Y341630D01*
X345440Y330200D02*
X332740Y342900D01*
X419100Y330200D02*
X431800Y342900D01*
X469900Y342900D01*
X332740Y342900D02*
X292100Y342900D01*
X345440Y330200D02*
X419100Y330200D01*
X469900Y317500D02*
X292100Y317500D01*
X292100Y292100D02*
X469900Y292100D01*
X469900Y266700D02*
X292100Y266700D01*
X292100Y241300D02*
X468630Y241300D01*
X469900Y242570D01*
X330200Y114300D02*
X292100Y114300D01*
X330200Y114300D02*
X342900Y127000D01*
X387350Y127000D01*
D19*
X387350Y127000D03*
X387350Y217170D03*
D18*
X469900Y217170D01*
X292100Y88900D02*
X279400Y88900D01*
X241300Y127000D01*
X190500Y127000D01*
X114300Y177800D02*
X101600Y177800D01*
X88900Y190500D01*
X88900Y215900D01*
X63500Y241300D01*
X25400Y241300D01*
X177800Y139700D02*
X190500Y127000D01*
X177800Y139700D02*
X152400Y139700D01*
X114300Y177800D01*
D17*
X228600Y50790D02*
X228600Y17790D01*
X228600Y50790D02*
X208280Y71110D01*
X208280Y71120D01*
X119380Y71120D01*
X228600Y50800D02*
X228600Y50790D01*
X246380Y68580D02*
X325120Y68580D01*
D19*
X325120Y68580D03*
X325120Y191770D03*
D17*
X246380Y68580D02*
X228600Y50800D01*
X325120Y191770D02*
X469900Y191770D01*
X119380Y71120D02*
X25400Y71120D01*
X25400Y215900D02*
X50800Y215900D01*
D19*
X50800Y215900D03*
X50800Y139700D03*
D17*
X50800Y96520D01*
X25400Y71120D01*
M02*
