M48
;GenerationSoftware,Autodesk,EAGLE,9.6.2*%
;CreationDate,2022-04-15T01:59:31Z*%
FMAT,2
ICI,OFF
METRIC,TZ,000.000
T4C0.350
T3C0.813
T2C0.900
T1C1.016
%
G90
M71
T1
X2540Y46990
X7620Y46990
X48006Y47117
X42926Y47117
X44196Y9652
X44196Y7112
X44196Y4572
X44196Y2032
X30480Y47879
X27940Y47879
X25400Y47879
X22860Y47879
X20320Y47879
X28829Y2032
X31369Y2032
X33909Y2032
X36449Y2032
X38989Y2032
X41529Y2032
X11938Y9652
X11938Y7112
X11938Y4572
X11938Y2032
X40640Y8890
X46990Y36830
X46990Y34290
X46990Y31750
X46990Y29210
X40640Y11176
X15113Y4572
X15113Y2032
X2540Y2794
X2540Y4953
X2540Y7112
X2540Y26670
X2540Y29210
X2540Y31750
X2540Y34290
X2540Y36830
X2540Y13970
X2540Y16510
X2540Y19050
X2540Y21590
X2540Y24130
X46990Y14097
X46990Y16637
X46990Y19177
X46990Y21717
X46990Y24257
X46990Y26670
T2
X22860Y5079
X25360Y5079
X25360Y1779
X22860Y1779
X20360Y1779
X20360Y5079
T3
X29210Y8890
X29210Y11430
X29210Y13970
X29210Y16510
X29210Y19050
X29210Y21590
X29210Y24130
X29210Y26670
X29210Y29210
X29210Y31750
X29210Y34290
X29210Y36830
X29210Y39370
X29210Y41910
X21590Y8890
X21590Y11430
X21590Y13970
X21590Y16510
X21590Y19050
X21590Y21590
X21590Y24130
X21590Y26670
X21590Y29210
X21590Y31750
X21590Y34290
X21590Y36830
X21590Y39370
X21590Y41910
X10668Y35941
X10668Y43561
X39497Y35687
X39497Y43307
X13208Y43561
X13208Y35941
X36957Y43307
X36957Y35687
X12700Y45720
X12700Y48260
X39497Y45720
X39497Y48260
X16510Y11430
X19050Y11430
X34290Y21590
X31750Y21590
X33020Y39370
X33020Y41910
T4
X5080Y13970
X5080Y21590
X32512Y19177
X32512Y6858
X38735Y21717
X38735Y12700
X14605Y24130
X14605Y9779
X12700Y27559
X12700Y19050
X26670Y21590
X25400Y25400
X36830Y8890
X36830Y13970
X35560Y11176
X35560Y16510
X17780Y40640
X17780Y17780
X16129Y44704
X16129Y14986
X13970Y41656
X6350Y19050
X7112Y12827
X7112Y4953
M30